<svg xmlns="http://www.w3.org/2000/svg" width="100" height="100" viewBox="0 0 100 100">
  <rect id="Rounded_Rectangle_1" data-name="Rounded Rectangle 1" fill="currentColor" x="12.844" y="71.125" width="24" height="7.531" rx="3.594" ry="3.594"/>
  <path id="Rounded_Rectangle_2" data-name="Rounded Rectangle 2" fill="currentColor" d="M16.438,46.125h16.8a3.594,3.594,0,0,1,3.594,3.594v0.344a3.594,3.594,0,0,1-3.594,3.594h-16.8a3.594,3.594,0,0,1-3.594-3.594V49.719A3.594,3.594,0,0,1,16.438,46.125Z"/>
  <path id="Rounded_Rectangle_3" data-name="Rounded Rectangle 3" fill="currentColor" d="M16.448,21.125H83.906A3.594,3.594,0,0,1,87.5,24.719v0.344a3.594,3.594,0,0,1-3.594,3.594H16.448a3.594,3.594,0,0,1-3.594-3.594V24.719A3.594,3.594,0,0,1,16.448,21.125Z"/>
  <path id="_" data-name="ㅅ" fill="currentColor" d="M67.308,50.882V40.994H58.152v9.888c-0.073,9.741-6.3,17.944-19.922,20.8l4.541,7.4c9.595-2.234,16.3-7.178,20-14.062,3.626,6.885,10.327,11.829,20,14.063l4.394-7.4C73.533,68.826,67.308,60.623,67.308,50.882Z"/>
</svg>
