<svg xmlns="http://www.w3.org/2000/svg" width="100px" height="100px" viewBox="0 0 100 100" preserveAspectRatio="xMidYMid meet">
  <rect id="Rounded_Rectangle_1" data-name="Rounded Rectangle 1" fill="currentColor" x="12.844" y="71.125" width="24" height="7.531" rx="3.594" ry="3.594"/>
  <path id="Rounded_Rectangle_2" data-name="Rounded Rectangle 2" fill="currentColor" d="M16.438,46.125h16.8a3.594,3.594,0,0,1,3.594,3.594v0.344a3.594,3.594,0,0,1-3.594,3.594h-16.8a3.594,3.594,0,0,1-3.594-3.594V49.719A3.594,3.594,0,0,1,16.438,46.125Z"/>
  <path id="Rounded_Rectangle_3" data-name="Rounded Rectangle 3" fill="currentColor" d="M16.448,21.125H83.906A3.594,3.594,0,0,1,87.5,24.719v0.344a3.594,3.594,0,0,1-3.594,3.594H16.448a3.594,3.594,0,0,1-3.594-3.594V24.719A3.594,3.594,0,0,1,16.448,21.125Z"/>
  <path id="_" data-name="music" fill="currentColor" d="M47.35 79.80 c-4.65 -1.25 -7.30 -5.20 -7.35 -10.95 0 -7.55 3.75 -11.35 11.30 -11.35 l3.80 0 -0.15 -6.85 c-0.30 -11.45 -0.05 -16.45 0.85 -17.35 0.65 -0.70 2.75 -0.80 15.40 -0.80 11.05 0 14.80 0.15 15.50 0.65 0.80 0.55 0.85 2.20 0.95 20.10 l0.05 19.50 -1.20 2.25 c-0.80 1.40 -2.10 2.75 -3.65 3.70 -2.20 1.35 -2.85 1.50 -6.55 1.50 -3.60 0 -4.40 -0.20 -6.45 -1.35 -1.45 -0.85 -2.80 -2.20 -3.65 -3.60 -1.20 -2.10 -1.30 -2.60 -1.10 -6.90 0.10 -3.95 0.35 -4.95 1.35 -6.45 2.15 -3.15 4.20 -4.15 8.90 -4.35 l4.15 -0.15 0 -3.45 0 -3.45 -8.25 0 -8.25 0 0 10.40 c0 5.95 -0.25 11.20 -0.55 12.35 -0.80 2.95 -4.20 6 -7.45 6.70 -3.20 0.70 -4.60 0.65 -7.65 -0.15z m5.90 -9.05 c0.70 -0.65 1.25 -1.55 1.25 -2 0 -0.85 -2.30 -3.25 -3.10 -3.25 -0.75 0 -2.90 2.40 -2.90 3.25 0 0.90 2.15 3.25 3 3.25 0.30 0 1.10 -0.55 1.75 -1.25z m24.95 -0.30 c1.45 -1.70 1.25 -2.75 -0.80 -4.15 -1.25 -0.90 -2.50 -0.35 -3.75 1.55 -0.60 0.90 -0.55 1.20 0.60 2.60 1.65 1.95 2.35 1.95 3.95 0z m1.30 -28.95 c0 -0.95 -0.35 -1 -8.25 -1 -7.90 0 -8.25 0.05 -8.25 1 0 0.95 0.35 1 8.25 1 7.90 0 8.25 -0.05 8.25 -1z"/>
</svg>