<svg xmlns="http://www.w3.org/2000/svg" width="100" height="100" viewBox="0 0 100 100">
  <rect id="Rounded_Rectangle_1" data-name="Rounded Rectangle 1" fill="currentColor" x="12.844" y="71.125" width="24" height="7.531" rx="3.594" ry="3.594"/>
  <path id="Rounded_Rectangle_2" data-name="Rounded Rectangle 2" fill="currentColor" d="M16.438,46.125h16.8a3.594,3.594,0,0,1,3.594,3.594v0.344a3.594,3.594,0,0,1-3.594,3.594h-16.8a3.594,3.594,0,0,1-3.594-3.594V49.719A3.594,3.594,0,0,1,16.438,46.125Z"/>
  <path id="Rounded_Rectangle_3" data-name="Rounded Rectangle 3" fill="currentColor" d="M16.448,21.125H83.906A3.594,3.594,0,0,1,87.5,24.719v0.344a3.594,3.594,0,0,1-3.594,3.594H16.448a3.594,3.594,0,0,1-3.594-3.594V24.719A3.594,3.594,0,0,1,16.448,21.125Z"/>
  <path id="λ" fill="currentColor" d="M82.8,81.5a16.114,16.114,0,0,0,3.841-.521l-0.911-7.1c-0.26,0-.651.065-0.976,0.065-1.693,0-2.278-1.041-3.255-3.645L70.631,41.73c-2.083-5.6-6.379-8.592-12.238-8.592a14.554,14.554,0,0,0-5.207.911L55.4,41.535c4.166-1.172,5.468-.521,7.1,3.45l0.846,2.083L50.582,80.917h9.894l7.29-21.286h0.456L73.69,75.123A9.325,9.325,0,0,0,82.8,81.5Z"/>
</svg>
